G75*
%MOIN*%
%OFA0B0*%
%FSLAX25Y25*%
%IPPOS*%
%LPD*%
%AMOC8*
5,1,8,0,0,1.08239X$1,22.5*
%
%ADD10C,0.00400*%
%ADD11R,0.00150X0.00050*%
%ADD12R,0.01350X0.00050*%
%ADD13R,0.01850X0.00050*%
%ADD14R,0.02300X0.00050*%
%ADD15R,0.02650X0.00050*%
%ADD16R,0.02950X0.00050*%
%ADD17R,0.03250X0.00050*%
%ADD18R,0.03450X0.00050*%
%ADD19R,0.08050X0.00050*%
%ADD20R,0.04450X0.00050*%
%ADD21R,0.08100X0.00050*%
%ADD22R,0.03650X0.00050*%
%ADD23R,0.04750X0.00050*%
%ADD24R,0.03850X0.00050*%
%ADD25R,0.05000X0.00050*%
%ADD26R,0.04050X0.00050*%
%ADD27R,0.05150X0.00050*%
%ADD28R,0.04250X0.00050*%
%ADD29R,0.05300X0.00050*%
%ADD30R,0.05450X0.00050*%
%ADD31R,0.04650X0.00050*%
%ADD32R,0.05600X0.00050*%
%ADD33R,0.05700X0.00050*%
%ADD34R,0.04950X0.00050*%
%ADD35R,0.05800X0.00050*%
%ADD36R,0.05050X0.00050*%
%ADD37R,0.05900X0.00050*%
%ADD38R,0.05250X0.00050*%
%ADD39R,0.06000X0.00050*%
%ADD40R,0.05350X0.00050*%
%ADD41R,0.06100X0.00050*%
%ADD42R,0.06200X0.00050*%
%ADD43R,0.06250X0.00050*%
%ADD44R,0.05750X0.00050*%
%ADD45R,0.06350X0.00050*%
%ADD46R,0.05850X0.00050*%
%ADD47R,0.06400X0.00050*%
%ADD48R,0.05950X0.00050*%
%ADD49R,0.06500X0.00050*%
%ADD50R,0.06050X0.00050*%
%ADD51R,0.06550X0.00050*%
%ADD52R,0.06150X0.00050*%
%ADD53R,0.06600X0.00050*%
%ADD54R,0.06650X0.00050*%
%ADD55R,0.06700X0.00050*%
%ADD56R,0.06450X0.00050*%
%ADD57R,0.06800X0.00050*%
%ADD58R,0.06850X0.00050*%
%ADD59R,0.06900X0.00050*%
%ADD60R,0.02750X0.00050*%
%ADD61R,0.06950X0.00050*%
%ADD62R,0.02600X0.00050*%
%ADD63R,0.07000X0.00050*%
%ADD64R,0.02450X0.00050*%
%ADD65R,0.07050X0.00050*%
%ADD66R,0.02350X0.00050*%
%ADD67R,0.01450X0.00050*%
%ADD68R,0.01400X0.00050*%
%ADD69R,0.02550X0.00050*%
%ADD70R,0.02250X0.00050*%
%ADD71R,0.02400X0.00050*%
%ADD72R,0.02150X0.00050*%
%ADD73R,0.02100X0.00050*%
%ADD74R,0.02000X0.00050*%
%ADD75R,0.02050X0.00050*%
%ADD76R,0.01900X0.00050*%
%ADD77R,0.01950X0.00050*%
%ADD78R,0.01800X0.00050*%
%ADD79R,0.01750X0.00050*%
%ADD80R,0.01700X0.00050*%
%ADD81R,0.01650X0.00050*%
%ADD82R,0.01600X0.00050*%
%ADD83R,0.01550X0.00050*%
%ADD84R,0.01500X0.00050*%
%ADD85R,0.02200X0.00050*%
%ADD86R,0.02800X0.00050*%
%ADD87R,0.06750X0.00050*%
%ADD88C,0.00300*%
%ADD89C,0.00200*%
%ADD90C,0.00600*%
%ADD91C,0.00500*%
D10*
X0088735Y0017000D02*
X0087000Y0020470D01*
X0090470Y0020470D02*
X0088735Y0017000D01*
X0092156Y0017867D02*
X0093024Y0017000D01*
X0094759Y0017000D01*
X0095626Y0017867D01*
X0095626Y0021337D01*
X0092156Y0017867D01*
X0092156Y0021337D01*
X0093024Y0022204D01*
X0094759Y0022204D01*
X0095626Y0021337D01*
X0099891Y0021337D02*
X0100758Y0022204D01*
X0102493Y0022204D01*
X0103361Y0021337D01*
X0103361Y0020470D01*
X0102493Y0019602D01*
X0103361Y0018735D01*
X0103361Y0017867D01*
X0102493Y0017000D01*
X0100758Y0017000D01*
X0099891Y0017867D01*
X0098180Y0017867D02*
X0098180Y0017000D01*
X0097313Y0017000D01*
X0097313Y0017867D01*
X0098180Y0017867D01*
X0101626Y0019602D02*
X0102493Y0019602D01*
X0102477Y0025400D02*
X0102477Y0028870D01*
X0101610Y0028870D01*
X0099923Y0028002D02*
X0099923Y0025400D01*
X0097321Y0025400D01*
X0096453Y0026267D01*
X0097321Y0027135D01*
X0099923Y0027135D01*
X0099923Y0028002D02*
X0099056Y0028870D01*
X0097321Y0028870D01*
X0094759Y0028870D02*
X0093891Y0028870D01*
X0092156Y0027135D01*
X0090470Y0028002D02*
X0088735Y0028002D01*
X0090470Y0028002D02*
X0090470Y0026267D01*
X0089602Y0025400D01*
X0087867Y0025400D01*
X0087000Y0026267D01*
X0087000Y0029737D01*
X0087867Y0030604D01*
X0089602Y0030604D01*
X0090470Y0029737D01*
X0092156Y0028870D02*
X0092156Y0025400D01*
X0101610Y0025400D02*
X0103345Y0025400D01*
X0105047Y0025400D02*
X0105047Y0028870D01*
X0107650Y0028870D01*
X0108517Y0028002D01*
X0108517Y0025400D01*
X0102477Y0030604D02*
X0102477Y0031472D01*
X0102469Y0033800D02*
X0105071Y0033800D01*
X0105939Y0034667D01*
X0105071Y0035535D01*
X0103337Y0035535D01*
X0102469Y0036402D01*
X0103337Y0037270D01*
X0105939Y0037270D01*
X0107626Y0036402D02*
X0108493Y0037270D01*
X0110228Y0037270D01*
X0111095Y0036402D01*
X0111095Y0035535D01*
X0107626Y0035535D01*
X0107626Y0036402D02*
X0107626Y0034667D01*
X0108493Y0033800D01*
X0110228Y0033800D01*
X0100782Y0033800D02*
X0100782Y0036402D01*
X0099915Y0037270D01*
X0097313Y0037270D01*
X0097313Y0033800D01*
X0095626Y0035535D02*
X0092156Y0035535D01*
X0092156Y0036402D02*
X0092156Y0034667D01*
X0093024Y0033800D01*
X0094759Y0033800D01*
X0095626Y0035535D02*
X0095626Y0036402D01*
X0094759Y0037270D01*
X0093024Y0037270D01*
X0092156Y0036402D01*
X0090470Y0035535D02*
X0090470Y0034667D01*
X0089602Y0033800D01*
X0087867Y0033800D01*
X0087000Y0034667D01*
X0089602Y0036402D02*
X0090470Y0035535D01*
X0089602Y0036402D02*
X0087867Y0036402D01*
X0087000Y0037270D01*
X0087000Y0038137D01*
X0087867Y0039004D01*
X0089602Y0039004D01*
X0090470Y0038137D01*
D11*
X0132050Y0047450D03*
X0132050Y0056250D03*
D12*
X0132050Y0056200D03*
X0132050Y0047500D03*
D13*
X0132050Y0047550D03*
X0129150Y0049700D03*
X0129100Y0049750D03*
X0129050Y0049800D03*
X0134950Y0049700D03*
X0135000Y0049750D03*
X0135050Y0049800D03*
X0135050Y0053900D03*
X0135000Y0053950D03*
X0134950Y0054000D03*
X0132050Y0056150D03*
X0129100Y0053950D03*
X0129050Y0053900D03*
X0115000Y0053850D03*
X0114950Y0053900D03*
X0115000Y0049850D03*
X0114950Y0049800D03*
X0114900Y0049750D03*
D14*
X0114425Y0049350D03*
X0114425Y0054350D03*
X0129675Y0054500D03*
X0132025Y0056100D03*
X0134425Y0054500D03*
X0134425Y0049200D03*
X0132025Y0047600D03*
X0129675Y0049200D03*
D15*
X0132050Y0047650D03*
X0132050Y0056050D03*
D16*
X0132050Y0056000D03*
X0130200Y0054750D03*
X0133900Y0054750D03*
X0133900Y0048950D03*
X0132050Y0047700D03*
X0130200Y0048950D03*
D17*
X0132050Y0047750D03*
X0132050Y0055950D03*
D18*
X0132050Y0055900D03*
X0132050Y0047800D03*
D19*
X0102200Y0047850D03*
X0102200Y0047900D03*
X0102200Y0047950D03*
X0102200Y0048000D03*
X0102200Y0048050D03*
X0102200Y0048100D03*
X0102200Y0048150D03*
X0102200Y0048200D03*
X0102200Y0048250D03*
X0102200Y0048300D03*
X0102200Y0048350D03*
X0102200Y0048400D03*
X0102200Y0048450D03*
X0102200Y0048500D03*
X0102200Y0048550D03*
X0102200Y0048600D03*
X0102200Y0048650D03*
X0102200Y0048700D03*
X0102200Y0048750D03*
X0102200Y0048800D03*
X0102200Y0048850D03*
X0102200Y0048900D03*
X0102200Y0048950D03*
X0102200Y0049000D03*
X0102200Y0049050D03*
X0102200Y0049100D03*
X0102200Y0049150D03*
X0102200Y0054550D03*
X0102200Y0054600D03*
X0102200Y0054650D03*
X0102200Y0054700D03*
X0102200Y0054750D03*
X0102200Y0054800D03*
X0102200Y0054850D03*
X0102200Y0054900D03*
X0102200Y0054950D03*
X0102200Y0055000D03*
X0102200Y0055050D03*
X0102200Y0055100D03*
X0102200Y0055150D03*
X0102200Y0055200D03*
X0102200Y0055250D03*
X0102200Y0055300D03*
X0102200Y0055350D03*
X0102200Y0055400D03*
X0102200Y0055450D03*
X0102200Y0055500D03*
X0102200Y0055550D03*
X0102200Y0055600D03*
X0102200Y0055650D03*
X0102200Y0055700D03*
X0102200Y0055750D03*
X0102200Y0055800D03*
X0102200Y0055850D03*
D20*
X0110600Y0055850D03*
X0110600Y0047850D03*
X0132050Y0048050D03*
X0132050Y0055650D03*
D21*
X0122275Y0055650D03*
X0122275Y0055700D03*
X0122275Y0055750D03*
X0122275Y0055800D03*
X0122275Y0055850D03*
X0122275Y0055600D03*
X0122275Y0055550D03*
X0122275Y0055500D03*
X0122275Y0055450D03*
X0122275Y0055400D03*
X0122275Y0055350D03*
X0122275Y0055300D03*
X0122275Y0055250D03*
X0122275Y0055200D03*
X0122275Y0055150D03*
X0122275Y0055100D03*
X0122275Y0055050D03*
X0122275Y0055000D03*
X0122275Y0054950D03*
X0122275Y0054900D03*
X0122275Y0054850D03*
X0122275Y0054800D03*
X0122275Y0054750D03*
X0122275Y0054700D03*
X0122275Y0054650D03*
X0122275Y0054600D03*
X0122275Y0054550D03*
X0122275Y0049150D03*
X0122275Y0049100D03*
X0122275Y0049050D03*
X0122275Y0049000D03*
X0122275Y0048950D03*
X0122275Y0048900D03*
X0122275Y0048850D03*
X0122275Y0048800D03*
X0122275Y0048750D03*
X0122275Y0048700D03*
X0122275Y0048650D03*
X0122275Y0048600D03*
X0122275Y0048550D03*
X0122275Y0048500D03*
X0122275Y0048450D03*
X0122275Y0048400D03*
X0122275Y0048350D03*
X0122275Y0048300D03*
X0122275Y0048250D03*
X0122275Y0048200D03*
X0122275Y0048150D03*
X0122275Y0048100D03*
X0122275Y0048050D03*
X0122275Y0048000D03*
X0122275Y0047950D03*
X0122275Y0047900D03*
X0122275Y0047850D03*
D22*
X0132050Y0047850D03*
X0132050Y0055850D03*
D23*
X0132050Y0055550D03*
X0132050Y0048150D03*
X0110750Y0047900D03*
X0110750Y0055800D03*
D24*
X0132050Y0055800D03*
X0132050Y0047900D03*
D25*
X0110875Y0047950D03*
X0110875Y0055750D03*
D26*
X0132050Y0055750D03*
X0132050Y0047950D03*
D27*
X0110950Y0048000D03*
X0110950Y0055700D03*
D28*
X0132050Y0055700D03*
X0132050Y0048000D03*
D29*
X0111025Y0048050D03*
D30*
X0111100Y0048100D03*
X0111100Y0055600D03*
X0132050Y0055300D03*
X0132050Y0048400D03*
D31*
X0132050Y0048100D03*
X0132050Y0055600D03*
D32*
X0132025Y0055250D03*
X0132025Y0048450D03*
X0111175Y0048150D03*
X0111175Y0055550D03*
D33*
X0111225Y0055500D03*
X0111225Y0048200D03*
D34*
X0132050Y0048200D03*
X0132050Y0055500D03*
D35*
X0111275Y0055450D03*
X0111275Y0048250D03*
D36*
X0132050Y0048250D03*
X0132050Y0055450D03*
D37*
X0111325Y0048300D03*
D38*
X0132050Y0048300D03*
X0132050Y0055400D03*
D39*
X0111375Y0055350D03*
X0111375Y0048350D03*
D40*
X0111050Y0055650D03*
X0132050Y0055350D03*
X0132050Y0048350D03*
D41*
X0111425Y0048400D03*
X0111425Y0055300D03*
D42*
X0111475Y0055250D03*
X0111475Y0048450D03*
D43*
X0111500Y0048500D03*
X0111500Y0055200D03*
X0132050Y0054950D03*
X0132050Y0048750D03*
D44*
X0132050Y0048500D03*
X0132050Y0055200D03*
D45*
X0132050Y0054900D03*
X0132050Y0048800D03*
X0111550Y0048550D03*
X0111550Y0055150D03*
D46*
X0132050Y0055150D03*
X0132050Y0048550D03*
D47*
X0111575Y0048600D03*
X0111575Y0055100D03*
D48*
X0111350Y0055400D03*
X0132050Y0055100D03*
X0132050Y0048600D03*
D49*
X0111625Y0048650D03*
X0111625Y0055050D03*
D50*
X0132050Y0055050D03*
X0132050Y0048650D03*
D51*
X0132050Y0048900D03*
X0132050Y0054800D03*
X0111650Y0055000D03*
X0111650Y0048700D03*
D52*
X0132050Y0048700D03*
X0132050Y0055000D03*
D53*
X0121525Y0052500D03*
X0121525Y0052450D03*
X0121525Y0052400D03*
X0121525Y0052350D03*
X0121525Y0052300D03*
X0121525Y0052250D03*
X0121525Y0052200D03*
X0121525Y0052150D03*
X0121525Y0052100D03*
X0121525Y0052050D03*
X0121525Y0052000D03*
X0121525Y0051950D03*
X0121525Y0051900D03*
X0121525Y0051850D03*
X0121525Y0051800D03*
X0121525Y0051750D03*
X0121525Y0051700D03*
X0121525Y0051650D03*
X0121525Y0051600D03*
X0121525Y0051550D03*
X0121525Y0051500D03*
X0121525Y0051450D03*
X0121525Y0051400D03*
X0121525Y0051350D03*
X0121525Y0051300D03*
X0121525Y0051250D03*
X0121525Y0051200D03*
X0111675Y0048750D03*
X0111675Y0054950D03*
D54*
X0111700Y0048800D03*
D55*
X0111725Y0048850D03*
X0111725Y0054900D03*
D56*
X0132050Y0054850D03*
X0132050Y0048850D03*
D57*
X0111775Y0048900D03*
X0111775Y0054800D03*
D58*
X0111800Y0054750D03*
X0111800Y0048950D03*
D59*
X0111825Y0049000D03*
X0111825Y0054700D03*
D60*
X0114050Y0049200D03*
X0130050Y0049000D03*
X0134050Y0049000D03*
X0134050Y0054700D03*
X0130050Y0054700D03*
D61*
X0111850Y0054650D03*
X0111850Y0049050D03*
D62*
X0114225Y0054450D03*
X0129925Y0054650D03*
X0134175Y0054650D03*
X0134175Y0049050D03*
X0129925Y0049050D03*
D63*
X0111875Y0049100D03*
X0111875Y0054600D03*
D64*
X0129850Y0054600D03*
X0134250Y0054600D03*
X0134250Y0049100D03*
X0129850Y0049100D03*
D65*
X0111900Y0049150D03*
X0111900Y0054550D03*
D66*
X0129750Y0054550D03*
X0134350Y0054550D03*
X0134350Y0049150D03*
X0129750Y0049150D03*
D67*
X0128400Y0051500D03*
X0128400Y0051550D03*
X0128400Y0051600D03*
X0128400Y0051650D03*
X0128400Y0052050D03*
X0128400Y0052100D03*
X0128400Y0052150D03*
X0128400Y0052200D03*
X0135700Y0052150D03*
X0135700Y0052100D03*
X0135700Y0052050D03*
X0135700Y0052000D03*
X0135700Y0051950D03*
X0135700Y0051750D03*
X0135700Y0051700D03*
X0135700Y0051650D03*
X0135700Y0051600D03*
X0135700Y0051550D03*
X0102200Y0049200D03*
X0102200Y0054500D03*
D68*
X0102225Y0054450D03*
X0102225Y0054400D03*
X0102225Y0054350D03*
X0102225Y0054300D03*
X0102225Y0054250D03*
X0102225Y0054200D03*
X0102225Y0054150D03*
X0102225Y0054100D03*
X0102225Y0054050D03*
X0102225Y0054000D03*
X0102225Y0053950D03*
X0102225Y0053900D03*
X0102225Y0053850D03*
X0102225Y0053800D03*
X0102225Y0053750D03*
X0102225Y0053700D03*
X0102225Y0053650D03*
X0102225Y0053600D03*
X0102225Y0053550D03*
X0102225Y0053500D03*
X0102225Y0053450D03*
X0102225Y0053400D03*
X0102225Y0053350D03*
X0102225Y0053300D03*
X0102225Y0053250D03*
X0102225Y0053200D03*
X0102225Y0053150D03*
X0102225Y0053100D03*
X0102225Y0053050D03*
X0102225Y0053000D03*
X0102225Y0052950D03*
X0102225Y0052900D03*
X0102225Y0052850D03*
X0102225Y0052800D03*
X0102225Y0052750D03*
X0102225Y0052700D03*
X0102225Y0052650D03*
X0102225Y0052600D03*
X0102225Y0052550D03*
X0102225Y0052500D03*
X0102225Y0052450D03*
X0102225Y0052400D03*
X0102225Y0052350D03*
X0102225Y0052300D03*
X0102225Y0052250D03*
X0102225Y0052200D03*
X0102225Y0052150D03*
X0102225Y0052100D03*
X0102225Y0052050D03*
X0102225Y0052000D03*
X0102225Y0051950D03*
X0102225Y0051900D03*
X0102225Y0051850D03*
X0102225Y0051800D03*
X0102225Y0051750D03*
X0102225Y0051700D03*
X0102225Y0051650D03*
X0102225Y0051600D03*
X0102225Y0051550D03*
X0102225Y0051500D03*
X0102225Y0051450D03*
X0102225Y0051400D03*
X0102225Y0051350D03*
X0102225Y0051300D03*
X0102225Y0051250D03*
X0102225Y0051200D03*
X0102225Y0051150D03*
X0102225Y0051100D03*
X0102225Y0051050D03*
X0102225Y0051000D03*
X0102225Y0050950D03*
X0102225Y0050900D03*
X0102225Y0050850D03*
X0102225Y0050800D03*
X0102225Y0050750D03*
X0102225Y0050700D03*
X0102225Y0050650D03*
X0102225Y0050600D03*
X0102225Y0050550D03*
X0102225Y0050500D03*
X0102225Y0050450D03*
X0102225Y0050400D03*
X0102225Y0050350D03*
X0102225Y0050300D03*
X0102225Y0050250D03*
X0102225Y0050200D03*
X0102225Y0050150D03*
X0102225Y0050100D03*
X0102225Y0050050D03*
X0102225Y0050000D03*
X0102225Y0049950D03*
X0102225Y0049900D03*
X0102225Y0049850D03*
X0102225Y0049800D03*
X0102225Y0049750D03*
X0102225Y0049700D03*
X0102225Y0049650D03*
X0102225Y0049600D03*
X0102225Y0049550D03*
X0102225Y0049500D03*
X0102225Y0049450D03*
X0102225Y0049400D03*
X0102225Y0049350D03*
X0102225Y0049300D03*
X0102225Y0049250D03*
X0109075Y0049250D03*
X0109075Y0049300D03*
X0109075Y0049350D03*
X0109075Y0049400D03*
X0109075Y0049450D03*
X0109075Y0049500D03*
X0109075Y0049550D03*
X0109075Y0049600D03*
X0109075Y0049650D03*
X0109075Y0049700D03*
X0109075Y0049750D03*
X0109075Y0049800D03*
X0109075Y0049850D03*
X0109075Y0049900D03*
X0109075Y0049950D03*
X0109075Y0050000D03*
X0109075Y0050050D03*
X0109075Y0050100D03*
X0109075Y0050150D03*
X0109075Y0050200D03*
X0109075Y0050250D03*
X0109075Y0050300D03*
X0109075Y0050350D03*
X0109075Y0050400D03*
X0109075Y0050450D03*
X0109075Y0050500D03*
X0109075Y0050550D03*
X0109075Y0050600D03*
X0109075Y0050650D03*
X0109075Y0050700D03*
X0109075Y0050750D03*
X0109075Y0050800D03*
X0109075Y0050850D03*
X0109075Y0050900D03*
X0109075Y0050950D03*
X0109075Y0051000D03*
X0109075Y0051050D03*
X0109075Y0051100D03*
X0109075Y0051150D03*
X0109075Y0051200D03*
X0109075Y0051250D03*
X0109075Y0051300D03*
X0109075Y0051350D03*
X0109075Y0051400D03*
X0109075Y0051450D03*
X0109075Y0051500D03*
X0109075Y0051550D03*
X0109075Y0051600D03*
X0109075Y0051650D03*
X0109075Y0051700D03*
X0109075Y0051750D03*
X0109075Y0051800D03*
X0109075Y0051850D03*
X0109075Y0051900D03*
X0109075Y0051950D03*
X0109075Y0052000D03*
X0109075Y0052050D03*
X0109075Y0052100D03*
X0109075Y0052150D03*
X0109075Y0052200D03*
X0109075Y0052250D03*
X0109075Y0052300D03*
X0109075Y0052350D03*
X0109075Y0052400D03*
X0109075Y0052450D03*
X0109075Y0052500D03*
X0109075Y0052550D03*
X0109075Y0052600D03*
X0109075Y0052650D03*
X0109075Y0052700D03*
X0109075Y0052750D03*
X0109075Y0052800D03*
X0109075Y0052850D03*
X0109075Y0052900D03*
X0109075Y0052950D03*
X0109075Y0053000D03*
X0109075Y0053050D03*
X0109075Y0053100D03*
X0109075Y0053150D03*
X0109075Y0053200D03*
X0109075Y0053250D03*
X0109075Y0053300D03*
X0109075Y0053350D03*
X0109075Y0053400D03*
X0109075Y0053450D03*
X0109075Y0053500D03*
X0109075Y0053550D03*
X0109075Y0053600D03*
X0109075Y0053650D03*
X0109075Y0053700D03*
X0109075Y0053750D03*
X0109075Y0053800D03*
X0109075Y0053850D03*
X0109075Y0053900D03*
X0109075Y0053950D03*
X0109075Y0054000D03*
X0109075Y0054050D03*
X0109075Y0054100D03*
X0109075Y0054150D03*
X0109075Y0054200D03*
X0109075Y0054250D03*
X0109075Y0054300D03*
X0109075Y0054350D03*
X0109075Y0054400D03*
X0109075Y0054450D03*
X0109075Y0054500D03*
X0118925Y0054500D03*
X0118925Y0054450D03*
X0118925Y0054400D03*
X0118925Y0054350D03*
X0118925Y0054300D03*
X0118925Y0054250D03*
X0118925Y0054200D03*
X0118925Y0054150D03*
X0118925Y0054100D03*
X0118925Y0054050D03*
X0118925Y0054000D03*
X0118925Y0053950D03*
X0118925Y0053900D03*
X0118925Y0053850D03*
X0118925Y0053800D03*
X0118925Y0053750D03*
X0118925Y0053700D03*
X0118925Y0053650D03*
X0118925Y0053600D03*
X0118925Y0053550D03*
X0118925Y0053500D03*
X0118925Y0053450D03*
X0118925Y0053400D03*
X0118925Y0053350D03*
X0118925Y0053300D03*
X0118925Y0053250D03*
X0118925Y0053200D03*
X0118925Y0053150D03*
X0118925Y0053100D03*
X0118925Y0053050D03*
X0118925Y0053000D03*
X0118925Y0052950D03*
X0118925Y0052900D03*
X0118925Y0052850D03*
X0118925Y0052800D03*
X0118925Y0052750D03*
X0118925Y0052700D03*
X0118925Y0052650D03*
X0118925Y0052600D03*
X0118925Y0052550D03*
X0118925Y0051150D03*
X0118925Y0051100D03*
X0118925Y0051050D03*
X0118925Y0051000D03*
X0118925Y0050950D03*
X0118925Y0050900D03*
X0118925Y0050850D03*
X0118925Y0050800D03*
X0118925Y0050750D03*
X0118925Y0050700D03*
X0118925Y0050650D03*
X0118925Y0050600D03*
X0118925Y0050550D03*
X0118925Y0050500D03*
X0118925Y0050450D03*
X0118925Y0050400D03*
X0118925Y0050350D03*
X0118925Y0050300D03*
X0118925Y0050250D03*
X0118925Y0050200D03*
X0118925Y0050150D03*
X0118925Y0050100D03*
X0118925Y0050050D03*
X0118925Y0050000D03*
X0118925Y0049950D03*
X0118925Y0049900D03*
X0118925Y0049850D03*
X0118925Y0049800D03*
X0118925Y0049750D03*
X0118925Y0049700D03*
X0118925Y0049650D03*
X0118925Y0049600D03*
X0118925Y0049550D03*
X0118925Y0049500D03*
X0118925Y0049450D03*
X0118925Y0049400D03*
X0118925Y0049350D03*
X0118925Y0049300D03*
X0118925Y0049250D03*
X0118925Y0049200D03*
X0109075Y0049200D03*
D69*
X0114200Y0049250D03*
D70*
X0114500Y0049400D03*
X0114500Y0054300D03*
X0129600Y0054450D03*
X0134500Y0054450D03*
X0134500Y0049250D03*
X0129600Y0049250D03*
D71*
X0114325Y0049300D03*
X0114325Y0054400D03*
D72*
X0114550Y0049450D03*
X0129550Y0049300D03*
X0134550Y0049300D03*
X0134550Y0054400D03*
X0129550Y0054400D03*
D73*
X0129475Y0054350D03*
X0129425Y0054300D03*
X0134625Y0054350D03*
X0134675Y0054300D03*
X0134675Y0049400D03*
X0134625Y0049350D03*
X0129475Y0049350D03*
X0129425Y0049400D03*
X0114625Y0049500D03*
X0114625Y0054200D03*
D74*
X0114775Y0049600D03*
X0129275Y0049550D03*
X0129325Y0049500D03*
X0129375Y0049450D03*
X0134725Y0049450D03*
X0134775Y0049500D03*
X0134825Y0049550D03*
X0134825Y0054150D03*
X0134775Y0054200D03*
X0134725Y0054250D03*
X0129375Y0054250D03*
X0129325Y0054200D03*
X0129275Y0054150D03*
D75*
X0114750Y0054100D03*
X0114700Y0054150D03*
X0114700Y0049550D03*
D76*
X0129175Y0049650D03*
X0129225Y0049600D03*
X0134875Y0049600D03*
X0134925Y0049650D03*
X0134925Y0054050D03*
X0134875Y0054100D03*
X0129225Y0054100D03*
X0129175Y0054050D03*
X0129125Y0054000D03*
D77*
X0114900Y0053950D03*
X0114850Y0054000D03*
X0114800Y0054050D03*
X0114850Y0049700D03*
X0114800Y0049650D03*
D78*
X0115025Y0049900D03*
X0115075Y0049950D03*
X0115075Y0053750D03*
X0115025Y0053800D03*
X0128975Y0053800D03*
X0129025Y0053850D03*
X0135075Y0053850D03*
X0135125Y0053800D03*
X0135125Y0049900D03*
X0135075Y0049850D03*
X0129025Y0049850D03*
X0128975Y0049900D03*
D79*
X0128950Y0049950D03*
X0128900Y0050000D03*
X0128900Y0050050D03*
X0135150Y0049950D03*
X0135200Y0050050D03*
X0135200Y0053650D03*
X0135150Y0053750D03*
X0128950Y0053750D03*
X0128900Y0053700D03*
X0128900Y0053650D03*
X0115200Y0053550D03*
X0115150Y0053600D03*
X0115150Y0053650D03*
X0115100Y0053700D03*
X0115200Y0050150D03*
X0115150Y0050050D03*
X0115100Y0050000D03*
D80*
X0115175Y0050100D03*
X0115225Y0050200D03*
X0115275Y0050250D03*
X0115275Y0053400D03*
X0115275Y0053450D03*
X0115225Y0053500D03*
X0128775Y0053450D03*
X0128825Y0053550D03*
X0128875Y0053600D03*
X0135175Y0053700D03*
X0135225Y0053600D03*
X0135275Y0053550D03*
X0135325Y0053450D03*
X0135325Y0050250D03*
X0135275Y0050150D03*
X0135225Y0050100D03*
X0135175Y0050000D03*
X0128875Y0050100D03*
X0128825Y0050150D03*
X0128775Y0050250D03*
D81*
X0128750Y0050300D03*
X0128700Y0050400D03*
X0128800Y0050200D03*
X0128700Y0053300D03*
X0128750Y0053400D03*
X0128800Y0053500D03*
X0135300Y0053500D03*
X0135350Y0053400D03*
X0135350Y0053350D03*
X0135400Y0053300D03*
X0135400Y0050400D03*
X0135350Y0050350D03*
X0135350Y0050300D03*
X0135300Y0050200D03*
X0115400Y0050550D03*
X0115350Y0050450D03*
X0115350Y0050400D03*
X0115300Y0050350D03*
X0115300Y0050300D03*
X0115400Y0053150D03*
X0115400Y0053200D03*
X0115350Y0053250D03*
X0115350Y0053300D03*
X0115300Y0053350D03*
D82*
X0115425Y0053100D03*
X0115425Y0053050D03*
X0115475Y0053000D03*
X0115475Y0052950D03*
X0115475Y0052900D03*
X0115525Y0052850D03*
X0115525Y0052800D03*
X0115575Y0052600D03*
X0115525Y0050900D03*
X0115475Y0050750D03*
X0115475Y0050700D03*
X0115425Y0050650D03*
X0115425Y0050600D03*
X0115375Y0050500D03*
X0128575Y0050700D03*
X0128625Y0050600D03*
X0128625Y0050550D03*
X0128675Y0050500D03*
X0128675Y0050450D03*
X0128725Y0050350D03*
X0128575Y0053000D03*
X0128625Y0053100D03*
X0128625Y0053150D03*
X0128675Y0053200D03*
X0128675Y0053250D03*
X0128725Y0053350D03*
X0135425Y0053250D03*
X0135425Y0053200D03*
X0135475Y0053150D03*
X0135475Y0053100D03*
X0135525Y0053000D03*
X0135525Y0050700D03*
X0135475Y0050600D03*
X0135475Y0050550D03*
X0135425Y0050500D03*
X0135425Y0050450D03*
D83*
X0135500Y0050650D03*
X0135550Y0050750D03*
X0135550Y0050800D03*
X0135550Y0050850D03*
X0135600Y0050950D03*
X0135600Y0051000D03*
X0135650Y0051200D03*
X0135650Y0052500D03*
X0135600Y0052700D03*
X0135600Y0052750D03*
X0135600Y0052800D03*
X0135550Y0052850D03*
X0135550Y0052900D03*
X0135550Y0052950D03*
X0135500Y0053050D03*
X0128600Y0053050D03*
X0128550Y0052950D03*
X0128550Y0052900D03*
X0128550Y0052850D03*
X0128500Y0052800D03*
X0128500Y0052750D03*
X0128500Y0052700D03*
X0128500Y0051000D03*
X0128500Y0050950D03*
X0128500Y0050900D03*
X0128550Y0050850D03*
X0128550Y0050800D03*
X0128550Y0050750D03*
X0128600Y0050650D03*
X0115650Y0051550D03*
X0115650Y0051600D03*
X0115650Y0051650D03*
X0115650Y0051700D03*
X0115650Y0051750D03*
X0115650Y0051800D03*
X0115650Y0051850D03*
X0115650Y0051900D03*
X0115650Y0051950D03*
X0115650Y0052000D03*
X0115650Y0052050D03*
X0115650Y0052100D03*
X0115650Y0052150D03*
X0115650Y0052200D03*
X0115600Y0052350D03*
X0115600Y0052400D03*
X0115600Y0052450D03*
X0115600Y0052500D03*
X0115600Y0052550D03*
X0115550Y0052650D03*
X0115550Y0052700D03*
X0115550Y0052750D03*
X0115600Y0051300D03*
X0115600Y0051250D03*
X0115600Y0051200D03*
X0115600Y0051150D03*
X0115550Y0051100D03*
X0115550Y0051050D03*
X0115550Y0051000D03*
X0115550Y0050950D03*
X0115500Y0050850D03*
X0115500Y0050800D03*
D84*
X0115625Y0051350D03*
X0115625Y0051400D03*
X0115625Y0051450D03*
X0115625Y0051500D03*
X0115625Y0052250D03*
X0115625Y0052300D03*
X0128375Y0052000D03*
X0128375Y0051950D03*
X0128375Y0051900D03*
X0128375Y0051850D03*
X0128375Y0051800D03*
X0128375Y0051750D03*
X0128375Y0051700D03*
X0128425Y0051450D03*
X0128425Y0051400D03*
X0128425Y0051350D03*
X0128425Y0051300D03*
X0128425Y0051250D03*
X0128425Y0051200D03*
X0128475Y0051150D03*
X0128475Y0051100D03*
X0128475Y0051050D03*
X0128425Y0052250D03*
X0128425Y0052300D03*
X0128425Y0052350D03*
X0128425Y0052400D03*
X0128425Y0052450D03*
X0128425Y0052500D03*
X0128475Y0052550D03*
X0128475Y0052600D03*
X0128475Y0052650D03*
X0135625Y0052650D03*
X0135625Y0052600D03*
X0135625Y0052550D03*
X0135675Y0052450D03*
X0135675Y0052400D03*
X0135675Y0052350D03*
X0135675Y0052300D03*
X0135675Y0052250D03*
X0135675Y0052200D03*
X0135725Y0051900D03*
X0135725Y0051850D03*
X0135725Y0051800D03*
X0135675Y0051500D03*
X0135675Y0051450D03*
X0135675Y0051400D03*
X0135675Y0051350D03*
X0135675Y0051300D03*
X0135675Y0051250D03*
X0135625Y0051150D03*
X0135625Y0051100D03*
X0135625Y0051050D03*
X0135575Y0050900D03*
D85*
X0114575Y0054250D03*
D86*
X0114075Y0054500D03*
D87*
X0111750Y0054850D03*
D88*
X0087443Y0045485D02*
X0086476Y0045485D01*
X0086959Y0045969D02*
X0086959Y0044034D01*
X0087443Y0043550D01*
X0085464Y0044034D02*
X0084980Y0043550D01*
X0083529Y0043550D01*
X0082518Y0043550D02*
X0082518Y0045485D01*
X0083529Y0045485D02*
X0084980Y0045485D01*
X0085464Y0045001D01*
X0085464Y0044034D01*
X0083529Y0042583D02*
X0083529Y0045485D01*
X0080583Y0045485D02*
X0080583Y0044034D01*
X0081066Y0043550D01*
X0082518Y0043550D01*
X0079578Y0045485D02*
X0079095Y0045485D01*
X0078127Y0044517D01*
X0078127Y0043550D02*
X0078127Y0045485D01*
X0077123Y0045485D02*
X0076639Y0045485D01*
X0075672Y0044517D01*
X0075672Y0043550D02*
X0075672Y0045485D01*
X0074660Y0045001D02*
X0074660Y0044517D01*
X0072725Y0044517D01*
X0072725Y0044034D02*
X0072725Y0045001D01*
X0073209Y0045485D01*
X0074176Y0045485D01*
X0074660Y0045001D01*
X0074176Y0043550D02*
X0073209Y0043550D01*
X0072725Y0044034D01*
X0071728Y0043550D02*
X0071245Y0044034D01*
X0071245Y0045969D01*
X0071728Y0045485D02*
X0070761Y0045485D01*
X0069749Y0045001D02*
X0069749Y0043550D01*
X0067814Y0043550D02*
X0067814Y0045485D01*
X0069266Y0045485D01*
X0069749Y0045001D01*
X0066817Y0043550D02*
X0065850Y0043550D01*
X0066334Y0043550D02*
X0066334Y0046452D01*
X0066817Y0046452D02*
X0065850Y0046452D01*
X0060584Y0046035D02*
X0060100Y0046035D01*
X0059133Y0045067D01*
X0059133Y0044100D02*
X0059133Y0046035D01*
X0058121Y0045551D02*
X0057637Y0046035D01*
X0056670Y0046035D01*
X0056186Y0045551D01*
X0056186Y0044584D01*
X0056670Y0044100D01*
X0057637Y0044100D01*
X0058121Y0044584D01*
X0058121Y0045551D01*
X0055175Y0046035D02*
X0053723Y0046035D01*
X0053240Y0045551D01*
X0053723Y0045067D01*
X0054691Y0045067D01*
X0055175Y0044584D01*
X0054691Y0044100D01*
X0053240Y0044100D01*
X0052228Y0044100D02*
X0052228Y0045551D01*
X0051744Y0046035D01*
X0050293Y0046035D01*
X0050293Y0044100D01*
X0049281Y0045067D02*
X0047347Y0045067D01*
X0047347Y0044584D02*
X0047347Y0045551D01*
X0047830Y0046035D01*
X0048798Y0046035D01*
X0049281Y0045551D01*
X0049281Y0045067D01*
X0048798Y0044100D02*
X0047830Y0044100D01*
X0047347Y0044584D01*
X0046335Y0044584D02*
X0045851Y0044100D01*
X0044884Y0044100D01*
X0044400Y0044584D01*
X0044884Y0045551D02*
X0045851Y0045551D01*
X0046335Y0045067D01*
X0046335Y0044584D01*
X0044884Y0045551D02*
X0044400Y0046035D01*
X0044400Y0046519D01*
X0044884Y0047002D01*
X0045851Y0047002D01*
X0046335Y0046519D01*
X0049841Y0028686D02*
X0049841Y0028202D01*
X0047877Y0027719D02*
X0047877Y0025784D01*
X0048361Y0025300D01*
X0049357Y0025300D02*
X0050325Y0025300D01*
X0049841Y0025300D02*
X0049841Y0027235D01*
X0049357Y0027235D01*
X0048361Y0027235D02*
X0047393Y0027235D01*
X0046381Y0028202D02*
X0044447Y0028202D01*
X0045414Y0028202D02*
X0045414Y0025300D01*
X0043435Y0025300D02*
X0043435Y0027235D01*
X0042467Y0028202D01*
X0041500Y0027235D01*
X0041500Y0025300D01*
X0041500Y0026751D02*
X0043435Y0026751D01*
X0051322Y0027235D02*
X0051322Y0025300D01*
X0053257Y0025300D02*
X0053257Y0026751D01*
X0052773Y0027235D01*
X0051322Y0027235D01*
X0054268Y0027235D02*
X0054268Y0025784D01*
X0054752Y0025300D01*
X0056203Y0025300D01*
X0056203Y0024816D02*
X0055719Y0024333D01*
X0055236Y0024333D01*
X0056203Y0024816D02*
X0056203Y0027235D01*
X0057215Y0027235D02*
X0057215Y0027719D01*
X0057698Y0028202D01*
X0058666Y0028202D01*
X0059150Y0027719D01*
X0059150Y0027235D01*
X0058666Y0026751D01*
X0057698Y0026751D01*
X0057215Y0027235D01*
X0057698Y0026751D02*
X0057215Y0026267D01*
X0057215Y0025784D01*
X0057698Y0025300D01*
X0058666Y0025300D01*
X0059150Y0025784D01*
X0059150Y0026267D01*
X0058666Y0026751D01*
X0060161Y0026751D02*
X0061129Y0027235D01*
X0061613Y0027235D01*
X0062096Y0026751D01*
X0062096Y0025784D01*
X0061613Y0025300D01*
X0060645Y0025300D01*
X0060161Y0025784D01*
X0060161Y0026751D02*
X0060161Y0028202D01*
X0062096Y0028202D01*
X0048586Y0019736D02*
X0048586Y0019252D01*
X0048586Y0018285D02*
X0048586Y0016350D01*
X0049069Y0016350D02*
X0048102Y0016350D01*
X0050066Y0016350D02*
X0050066Y0018285D01*
X0050550Y0018285D01*
X0051034Y0017801D01*
X0051518Y0018285D01*
X0052001Y0017801D01*
X0052001Y0016350D01*
X0051034Y0016350D02*
X0051034Y0017801D01*
X0053013Y0017801D02*
X0054948Y0017801D01*
X0055959Y0018285D02*
X0057411Y0018285D01*
X0057894Y0017801D01*
X0057894Y0016834D01*
X0057411Y0016350D01*
X0055959Y0016350D01*
X0055959Y0015383D02*
X0055959Y0018285D01*
X0058906Y0017801D02*
X0058906Y0016834D01*
X0059390Y0016350D01*
X0060357Y0016350D01*
X0060841Y0016834D01*
X0060841Y0017801D01*
X0060357Y0018285D01*
X0059390Y0018285D01*
X0058906Y0017801D01*
X0061852Y0018285D02*
X0062820Y0018285D01*
X0062336Y0018769D02*
X0062336Y0016834D01*
X0062820Y0016350D01*
X0048586Y0018285D02*
X0048102Y0018285D01*
X0047098Y0018285D02*
X0046614Y0018285D01*
X0045647Y0017317D01*
X0045647Y0016350D02*
X0045647Y0018285D01*
X0044635Y0019252D02*
X0042700Y0019252D01*
X0043667Y0019252D02*
X0043667Y0016350D01*
X0123014Y0025622D02*
X0123498Y0025622D01*
X0124465Y0025622D02*
X0126400Y0025622D01*
X0126400Y0026105D02*
X0126400Y0025138D01*
X0126400Y0024126D02*
X0124949Y0024126D01*
X0124465Y0023643D01*
X0124949Y0023159D01*
X0126400Y0023159D01*
X0124949Y0023159D02*
X0124465Y0022675D01*
X0124465Y0022191D01*
X0126400Y0022191D01*
X0125916Y0021180D02*
X0125433Y0020696D01*
X0125433Y0019729D01*
X0124949Y0019245D01*
X0124465Y0019729D01*
X0124465Y0021180D01*
X0125916Y0021180D02*
X0126400Y0020696D01*
X0126400Y0019245D01*
X0126400Y0018233D02*
X0124949Y0018233D01*
X0124465Y0017750D01*
X0124465Y0016298D01*
X0126400Y0016298D01*
X0126400Y0015287D02*
X0124949Y0015287D01*
X0124465Y0014803D01*
X0124465Y0013836D01*
X0125433Y0013836D02*
X0125916Y0013352D01*
X0126400Y0013836D01*
X0126400Y0015287D01*
X0125433Y0015287D02*
X0125433Y0013836D01*
X0124465Y0012348D02*
X0124465Y0011864D01*
X0125433Y0010897D01*
X0126400Y0010897D02*
X0124465Y0010897D01*
X0123498Y0009885D02*
X0123498Y0007950D01*
X0123498Y0008917D02*
X0126400Y0008917D01*
X0124465Y0025138D02*
X0124465Y0025622D01*
X0124465Y0027102D02*
X0124465Y0028070D01*
X0123981Y0027586D02*
X0125916Y0027586D01*
X0126400Y0028070D01*
X0125916Y0029550D02*
X0123981Y0029550D01*
X0124465Y0029067D02*
X0124465Y0030034D01*
X0124949Y0031031D02*
X0124465Y0031515D01*
X0124465Y0032482D01*
X0124949Y0032966D01*
X0125433Y0032966D01*
X0125433Y0031031D01*
X0125916Y0031031D02*
X0124949Y0031031D01*
X0125916Y0031031D02*
X0126400Y0031515D01*
X0126400Y0032482D01*
X0126400Y0033978D02*
X0124465Y0033978D01*
X0124465Y0034945D02*
X0124465Y0035429D01*
X0124465Y0034945D02*
X0125433Y0033978D01*
X0126400Y0030034D02*
X0125916Y0029550D01*
D89*
X0045441Y0037391D02*
X0045443Y0037479D01*
X0045449Y0037567D01*
X0045459Y0037655D01*
X0045473Y0037743D01*
X0045490Y0037829D01*
X0045512Y0037915D01*
X0045537Y0037999D01*
X0045567Y0038083D01*
X0045599Y0038165D01*
X0045636Y0038245D01*
X0045676Y0038324D01*
X0045720Y0038401D01*
X0045767Y0038476D01*
X0045817Y0038548D01*
X0045871Y0038619D01*
X0045927Y0038686D01*
X0045987Y0038752D01*
X0046049Y0038814D01*
X0046115Y0038874D01*
X0046182Y0038930D01*
X0046253Y0038984D01*
X0046325Y0039034D01*
X0046400Y0039081D01*
X0046477Y0039125D01*
X0046556Y0039165D01*
X0046636Y0039202D01*
X0046718Y0039234D01*
X0046802Y0039264D01*
X0046886Y0039289D01*
X0046972Y0039311D01*
X0047058Y0039328D01*
X0047146Y0039342D01*
X0047234Y0039352D01*
X0047322Y0039358D01*
X0047410Y0039360D01*
X0047498Y0039358D01*
X0047586Y0039352D01*
X0047674Y0039342D01*
X0047762Y0039328D01*
X0047848Y0039311D01*
X0047934Y0039289D01*
X0048018Y0039264D01*
X0048102Y0039234D01*
X0048184Y0039202D01*
X0048264Y0039165D01*
X0048343Y0039125D01*
X0048420Y0039081D01*
X0048495Y0039034D01*
X0048567Y0038984D01*
X0048638Y0038930D01*
X0048705Y0038874D01*
X0048771Y0038814D01*
X0048833Y0038752D01*
X0048893Y0038686D01*
X0048949Y0038619D01*
X0049003Y0038548D01*
X0049053Y0038476D01*
X0049100Y0038401D01*
X0049144Y0038324D01*
X0049184Y0038245D01*
X0049221Y0038165D01*
X0049253Y0038083D01*
X0049283Y0037999D01*
X0049308Y0037915D01*
X0049330Y0037829D01*
X0049347Y0037743D01*
X0049361Y0037655D01*
X0049371Y0037567D01*
X0049377Y0037479D01*
X0049379Y0037391D01*
X0049377Y0037303D01*
X0049371Y0037215D01*
X0049361Y0037127D01*
X0049347Y0037039D01*
X0049330Y0036953D01*
X0049308Y0036867D01*
X0049283Y0036783D01*
X0049253Y0036699D01*
X0049221Y0036617D01*
X0049184Y0036537D01*
X0049144Y0036458D01*
X0049100Y0036381D01*
X0049053Y0036306D01*
X0049003Y0036234D01*
X0048949Y0036163D01*
X0048893Y0036096D01*
X0048833Y0036030D01*
X0048771Y0035968D01*
X0048705Y0035908D01*
X0048638Y0035852D01*
X0048567Y0035798D01*
X0048495Y0035748D01*
X0048420Y0035701D01*
X0048343Y0035657D01*
X0048264Y0035617D01*
X0048184Y0035580D01*
X0048102Y0035548D01*
X0048018Y0035518D01*
X0047934Y0035493D01*
X0047848Y0035471D01*
X0047762Y0035454D01*
X0047674Y0035440D01*
X0047586Y0035430D01*
X0047498Y0035424D01*
X0047410Y0035422D01*
X0047322Y0035424D01*
X0047234Y0035430D01*
X0047146Y0035440D01*
X0047058Y0035454D01*
X0046972Y0035471D01*
X0046886Y0035493D01*
X0046802Y0035518D01*
X0046718Y0035548D01*
X0046636Y0035580D01*
X0046556Y0035617D01*
X0046477Y0035657D01*
X0046400Y0035701D01*
X0046325Y0035748D01*
X0046253Y0035798D01*
X0046182Y0035852D01*
X0046115Y0035908D01*
X0046049Y0035968D01*
X0045987Y0036030D01*
X0045927Y0036096D01*
X0045871Y0036163D01*
X0045817Y0036234D01*
X0045767Y0036306D01*
X0045720Y0036381D01*
X0045676Y0036458D01*
X0045636Y0036537D01*
X0045599Y0036617D01*
X0045567Y0036699D01*
X0045537Y0036783D01*
X0045512Y0036867D01*
X0045490Y0036953D01*
X0045473Y0037039D01*
X0045459Y0037127D01*
X0045449Y0037215D01*
X0045443Y0037303D01*
X0045441Y0037391D01*
X0015061Y0015285D02*
X0014694Y0015652D01*
X0013593Y0015652D01*
X0013593Y0013450D01*
X0013593Y0014184D02*
X0014694Y0014184D01*
X0015061Y0014551D01*
X0015061Y0015285D01*
X0012851Y0015285D02*
X0012484Y0015652D01*
X0011750Y0015652D01*
X0011383Y0015285D01*
X0011383Y0014918D01*
X0011750Y0014551D01*
X0012484Y0014551D01*
X0012851Y0014184D01*
X0012851Y0013817D01*
X0012484Y0013450D01*
X0011750Y0013450D01*
X0011383Y0013817D01*
X0010641Y0013817D02*
X0010274Y0013450D01*
X0009540Y0013450D01*
X0009173Y0013817D01*
X0009173Y0015285D01*
X0009540Y0015652D01*
X0010274Y0015652D01*
X0010641Y0015285D01*
X0008434Y0015652D02*
X0007700Y0015652D01*
X0008067Y0015652D02*
X0008067Y0013450D01*
X0007700Y0013450D02*
X0008434Y0013450D01*
D90*
X0016800Y0009350D02*
X0019300Y0006850D01*
X0024300Y0006850D01*
X0026800Y0009350D01*
X0026800Y0014350D01*
X0024300Y0016850D01*
X0019300Y0016850D01*
X0016800Y0014350D01*
X0016800Y0009350D01*
X0024300Y0016800D02*
X0009300Y0016800D01*
X0006800Y0019300D01*
X0006800Y0024300D01*
X0009300Y0026800D01*
X0024300Y0026800D01*
X0026800Y0024300D01*
X0026800Y0019300D01*
X0024300Y0016800D01*
X0040284Y0022627D02*
X0040284Y0023139D01*
X0040285Y0022548D02*
X0040287Y0022486D01*
X0040293Y0022425D01*
X0040302Y0022364D01*
X0040316Y0022303D01*
X0040333Y0022244D01*
X0040354Y0022186D01*
X0040379Y0022129D01*
X0040407Y0022074D01*
X0040438Y0022021D01*
X0040473Y0021970D01*
X0040511Y0021921D01*
X0040552Y0021874D01*
X0040595Y0021831D01*
X0040642Y0021790D01*
X0040691Y0021752D01*
X0040742Y0021717D01*
X0040795Y0021686D01*
X0040850Y0021658D01*
X0040907Y0021633D01*
X0040965Y0021612D01*
X0041024Y0021595D01*
X0041085Y0021581D01*
X0041146Y0021572D01*
X0041207Y0021566D01*
X0041269Y0021564D01*
X0062233Y0021564D01*
X0062295Y0021566D01*
X0062356Y0021572D01*
X0062417Y0021581D01*
X0062478Y0021595D01*
X0062537Y0021612D01*
X0062595Y0021633D01*
X0062652Y0021658D01*
X0062707Y0021686D01*
X0062760Y0021717D01*
X0062811Y0021752D01*
X0062860Y0021790D01*
X0062907Y0021831D01*
X0062950Y0021874D01*
X0062991Y0021921D01*
X0063029Y0021970D01*
X0063064Y0022021D01*
X0063095Y0022074D01*
X0063123Y0022129D01*
X0063148Y0022186D01*
X0063169Y0022244D01*
X0063186Y0022303D01*
X0063200Y0022364D01*
X0063209Y0022425D01*
X0063215Y0022486D01*
X0063217Y0022548D01*
X0063217Y0022509D02*
X0063217Y0023099D01*
X0063217Y0025540D02*
X0063217Y0028060D01*
X0063217Y0030540D02*
X0063217Y0033060D01*
X0063217Y0035540D02*
X0063217Y0038060D01*
X0063217Y0040501D02*
X0063217Y0041013D01*
X0063217Y0041052D02*
X0063215Y0041114D01*
X0063209Y0041175D01*
X0063200Y0041236D01*
X0063186Y0041297D01*
X0063169Y0041356D01*
X0063148Y0041414D01*
X0063123Y0041471D01*
X0063095Y0041526D01*
X0063064Y0041579D01*
X0063029Y0041630D01*
X0062991Y0041679D01*
X0062950Y0041726D01*
X0062907Y0041769D01*
X0062860Y0041810D01*
X0062811Y0041848D01*
X0062760Y0041883D01*
X0062707Y0041914D01*
X0062652Y0041942D01*
X0062595Y0041967D01*
X0062537Y0041988D01*
X0062478Y0042005D01*
X0062417Y0042019D01*
X0062356Y0042028D01*
X0062295Y0042034D01*
X0062233Y0042036D01*
X0041308Y0042036D01*
X0041269Y0042036D02*
X0041207Y0042034D01*
X0041146Y0042028D01*
X0041085Y0042019D01*
X0041024Y0042005D01*
X0040965Y0041988D01*
X0040907Y0041967D01*
X0040850Y0041942D01*
X0040795Y0041914D01*
X0040742Y0041883D01*
X0040691Y0041848D01*
X0040642Y0041810D01*
X0040595Y0041769D01*
X0040552Y0041726D01*
X0040511Y0041679D01*
X0040473Y0041630D01*
X0040438Y0041579D01*
X0040407Y0041526D01*
X0040379Y0041471D01*
X0040354Y0041414D01*
X0040333Y0041356D01*
X0040316Y0041297D01*
X0040302Y0041236D01*
X0040293Y0041175D01*
X0040287Y0041114D01*
X0040285Y0041052D01*
X0040284Y0041013D02*
X0040284Y0040501D01*
X0040284Y0038060D02*
X0040284Y0035540D01*
X0040284Y0033099D02*
X0040284Y0030540D01*
X0040284Y0028099D02*
X0040284Y0025540D01*
X0026800Y0029300D02*
X0024300Y0026800D01*
X0026800Y0029300D02*
X0026800Y0034300D01*
X0024300Y0036800D01*
X0009300Y0036800D01*
X0006800Y0034300D01*
X0006800Y0029300D01*
X0009300Y0026800D01*
X0009300Y0036800D02*
X0006800Y0039300D01*
X0006800Y0044300D01*
X0009300Y0046800D01*
X0024300Y0046800D01*
X0019300Y0046800D01*
X0016800Y0049300D01*
X0016800Y0054300D01*
X0019300Y0056800D01*
X0024300Y0056800D01*
X0026800Y0054300D01*
X0026800Y0049300D01*
X0024300Y0046800D01*
X0026800Y0044300D01*
X0026800Y0039300D01*
X0024300Y0036800D01*
X0066800Y0049300D02*
X0066800Y0054300D01*
X0069300Y0056800D01*
X0074300Y0056800D01*
X0076800Y0054300D01*
X0076800Y0049300D01*
X0074300Y0046800D01*
X0069300Y0046800D01*
X0066800Y0049300D01*
X0076800Y0049300D02*
X0079300Y0046800D01*
X0084300Y0046800D01*
X0086800Y0049300D01*
X0086800Y0054300D01*
X0084300Y0056800D01*
X0079300Y0056800D01*
X0076800Y0054300D01*
X0076800Y0049300D01*
D91*
X0011798Y0048551D02*
X0011798Y0047801D01*
X0011047Y0047050D01*
X0010297Y0047050D01*
X0009546Y0047801D01*
X0009546Y0048551D01*
X0010297Y0049302D01*
X0011047Y0049302D01*
X0011798Y0048551D01*
M02*
