%
M48
M72
T01C0.02400
T02C0.04000
%
T01
X59000Y39200
X33700Y51300
T02
X21800Y11800
X41800Y11800
X51800Y11800
X61800Y11800
X21800Y21800
X11800Y21800
X11800Y31800
X21800Y31800
X21800Y41800
X11800Y41800
X21800Y51800
X41800Y51800
X51800Y51800
X61800Y51800
X71800Y51800
X81800Y51800
X131800Y31800
X131800Y21800
X131800Y11800
M30
