G75*
%MOIN*%
%OFA0B0*%
%FSLAX25Y25*%
%IPPOS*%
%LPD*%
%AMOC8*
5,1,8,0,0,1.08239X$1,22.5*
%
%ADD10C,0.00000*%
%ADD11C,0.06600*%
%ADD12R,0.05512X0.01969*%
%ADD13OC8,0.06000*%
%ADD14C,0.01600*%
%ADD15C,0.01000*%
%ADD16C,0.04000*%
D10*
X0006800Y0006800D02*
X0006800Y0066761D01*
X0110501Y0066761D01*
X0110501Y0006800D01*
X0006800Y0006800D01*
D11*
X0016800Y0016800D03*
X0026800Y0016800D03*
X0036800Y0016800D03*
X0081800Y0016800D03*
X0091800Y0016800D03*
X0101800Y0016800D03*
X0036800Y0056800D03*
X0026800Y0056800D03*
X0016800Y0056800D03*
D12*
X0013398Y0044300D03*
X0013398Y0039339D03*
X0013398Y0034339D03*
X0013398Y0029339D03*
X0040202Y0029300D03*
X0040202Y0034300D03*
X0040202Y0039300D03*
X0040202Y0044300D03*
D13*
X0046800Y0056800D03*
X0056800Y0056800D03*
D14*
X0057000Y0057000D02*
X0061600Y0057000D01*
X0061600Y0058788D01*
X0058788Y0061600D01*
X0057000Y0061600D01*
X0057000Y0057000D01*
X0057000Y0056600D01*
X0061600Y0056600D01*
X0061600Y0054812D01*
X0058788Y0052000D01*
X0057000Y0052000D01*
X0057000Y0056600D01*
X0056600Y0056600D01*
X0056600Y0052000D01*
X0054812Y0052000D01*
X0052000Y0054812D01*
X0052000Y0056600D01*
X0056600Y0056600D01*
X0056600Y0057000D01*
X0056600Y0061600D01*
X0054812Y0061600D01*
X0052000Y0058788D01*
X0052000Y0057000D01*
X0056600Y0057000D01*
X0057000Y0057000D01*
X0057000Y0056354D02*
X0056600Y0056354D01*
X0056600Y0057952D02*
X0057000Y0057952D01*
X0057000Y0059551D02*
X0056600Y0059551D01*
X0056600Y0061149D02*
X0057000Y0061149D01*
X0059239Y0061149D02*
X0105701Y0061149D01*
X0105701Y0061961D02*
X0105701Y0020108D01*
X0105690Y0020122D01*
X0105122Y0020690D01*
X0104473Y0021162D01*
X0103758Y0021526D01*
X0102994Y0021774D01*
X0102201Y0021900D01*
X0102000Y0021900D01*
X0102000Y0017000D01*
X0101600Y0017000D01*
X0101600Y0021900D01*
X0101399Y0021900D01*
X0100606Y0021774D01*
X0099842Y0021526D01*
X0099127Y0021162D01*
X0098478Y0020690D01*
X0097910Y0020122D01*
X0097438Y0019473D01*
X0097074Y0018758D01*
X0096921Y0018287D01*
X0096293Y0019802D01*
X0094802Y0021293D01*
X0092854Y0022100D01*
X0090746Y0022100D01*
X0088798Y0021293D01*
X0087307Y0019802D01*
X0086800Y0018578D01*
X0086293Y0019802D01*
X0084802Y0021293D01*
X0082854Y0022100D01*
X0080746Y0022100D01*
X0080341Y0021932D01*
X0071208Y0031065D01*
X0070289Y0031446D01*
X0069295Y0031446D01*
X0044624Y0031446D01*
X0044270Y0031800D01*
X0044957Y0032487D01*
X0044957Y0036113D01*
X0044270Y0036800D01*
X0044957Y0037487D01*
X0044957Y0041113D01*
X0044270Y0041800D01*
X0044957Y0042487D01*
X0044957Y0044818D01*
X0045975Y0045240D01*
X0047100Y0046365D01*
X0047709Y0047835D01*
X0047709Y0049426D01*
X0047100Y0050897D01*
X0046197Y0051800D01*
X0048871Y0051800D01*
X0051800Y0054729D01*
X0051800Y0058871D01*
X0048871Y0061800D01*
X0045887Y0061800D01*
X0045726Y0061961D01*
X0105701Y0061961D01*
X0105701Y0059551D02*
X0060837Y0059551D01*
X0061600Y0057952D02*
X0105701Y0057952D01*
X0105701Y0056354D02*
X0061600Y0056354D01*
X0061544Y0054755D02*
X0105701Y0054755D01*
X0105701Y0053157D02*
X0059945Y0053157D01*
X0057000Y0053157D02*
X0056600Y0053157D01*
X0056600Y0054755D02*
X0057000Y0054755D01*
X0053655Y0053157D02*
X0050228Y0053157D01*
X0051800Y0054755D02*
X0052056Y0054755D01*
X0052000Y0056354D02*
X0051800Y0056354D01*
X0051800Y0057952D02*
X0052000Y0057952D01*
X0052763Y0059551D02*
X0051120Y0059551D01*
X0049522Y0061149D02*
X0054361Y0061149D01*
X0043898Y0052631D02*
X0041800Y0054729D01*
X0041800Y0055767D01*
X0041774Y0055606D01*
X0041526Y0054842D01*
X0041162Y0054127D01*
X0040690Y0053478D01*
X0040122Y0052910D01*
X0039473Y0052438D01*
X0038758Y0052074D01*
X0037994Y0051826D01*
X0037201Y0051700D01*
X0037000Y0051700D01*
X0037000Y0056600D01*
X0036600Y0056600D01*
X0036600Y0051700D01*
X0036399Y0051700D01*
X0035606Y0051826D01*
X0034842Y0052074D01*
X0034127Y0052438D01*
X0033478Y0052910D01*
X0032910Y0053478D01*
X0032438Y0054127D01*
X0032074Y0054842D01*
X0031921Y0055313D01*
X0031293Y0053798D01*
X0029802Y0052307D01*
X0029477Y0052172D01*
X0029477Y0046165D01*
X0029097Y0045246D01*
X0028393Y0044543D01*
X0018154Y0034304D01*
X0018154Y0032527D01*
X0017326Y0031698D01*
X0017595Y0031429D01*
X0017832Y0031018D01*
X0017954Y0030561D01*
X0017954Y0029339D01*
X0017954Y0028118D01*
X0017832Y0027660D01*
X0017595Y0027250D01*
X0017260Y0026915D01*
X0016849Y0026678D01*
X0016391Y0026555D01*
X0013398Y0026555D01*
X0013398Y0029339D01*
X0013398Y0029339D01*
X0013398Y0026555D01*
X0011600Y0026555D01*
X0011600Y0018096D01*
X0012307Y0019802D01*
X0013798Y0021293D01*
X0015746Y0022100D01*
X0017854Y0022100D01*
X0019802Y0021293D01*
X0021293Y0019802D01*
X0021800Y0018578D01*
X0022307Y0019802D01*
X0023798Y0021293D01*
X0024477Y0021575D01*
X0024477Y0029935D01*
X0024858Y0030854D01*
X0025561Y0031557D01*
X0030761Y0036757D01*
X0030611Y0036757D01*
X0029140Y0037366D01*
X0028015Y0038491D01*
X0027406Y0039961D01*
X0027406Y0041552D01*
X0028015Y0043023D01*
X0029140Y0044148D01*
X0030611Y0044757D01*
X0031871Y0044757D01*
X0033435Y0046321D01*
X0034354Y0046702D01*
X0036035Y0046702D01*
X0036617Y0047284D01*
X0038827Y0047284D01*
X0039709Y0048166D01*
X0039709Y0049426D01*
X0040318Y0050897D01*
X0041444Y0052022D01*
X0042914Y0052631D01*
X0043898Y0052631D01*
X0043372Y0053157D02*
X0040369Y0053157D01*
X0040980Y0051558D02*
X0029477Y0051558D01*
X0030652Y0053157D02*
X0033231Y0053157D01*
X0032118Y0054755D02*
X0031690Y0054755D01*
X0036600Y0054755D02*
X0037000Y0054755D01*
X0037000Y0053157D02*
X0036600Y0053157D01*
X0036600Y0056354D02*
X0037000Y0056354D01*
X0041482Y0054755D02*
X0041800Y0054755D01*
X0046439Y0051558D02*
X0105701Y0051558D01*
X0105701Y0049960D02*
X0047488Y0049960D01*
X0047709Y0048361D02*
X0105701Y0048361D01*
X0105701Y0046763D02*
X0047265Y0046763D01*
X0045793Y0045164D02*
X0105701Y0045164D01*
X0105701Y0043566D02*
X0044957Y0043566D01*
X0044437Y0041967D02*
X0105701Y0041967D01*
X0105701Y0040369D02*
X0044957Y0040369D01*
X0044957Y0038770D02*
X0105701Y0038770D01*
X0105701Y0037172D02*
X0044642Y0037172D01*
X0044957Y0035573D02*
X0105701Y0035573D01*
X0105701Y0033975D02*
X0044957Y0033975D01*
X0044846Y0032376D02*
X0105701Y0032376D01*
X0105701Y0030778D02*
X0071496Y0030778D01*
X0073094Y0029179D02*
X0105701Y0029179D01*
X0105701Y0027581D02*
X0074693Y0027581D01*
X0076291Y0025982D02*
X0105701Y0025982D01*
X0105701Y0024384D02*
X0077890Y0024384D01*
X0079488Y0022785D02*
X0105701Y0022785D01*
X0105701Y0021187D02*
X0104425Y0021187D01*
X0102000Y0021187D02*
X0101600Y0021187D01*
X0101600Y0019588D02*
X0102000Y0019588D01*
X0102000Y0017990D02*
X0101600Y0017990D01*
X0101600Y0016600D02*
X0102000Y0016600D01*
X0102000Y0011700D01*
X0102201Y0011700D01*
X0102994Y0011826D01*
X0103758Y0012074D01*
X0104473Y0012438D01*
X0105122Y0012910D01*
X0105690Y0013478D01*
X0105701Y0013492D01*
X0105701Y0011600D01*
X0093096Y0011600D01*
X0094802Y0012307D01*
X0096293Y0013798D01*
X0096921Y0015313D01*
X0097074Y0014842D01*
X0097438Y0014127D01*
X0097910Y0013478D01*
X0098478Y0012910D01*
X0099127Y0012438D01*
X0099842Y0012074D01*
X0100606Y0011826D01*
X0101399Y0011700D01*
X0101600Y0011700D01*
X0101600Y0016600D01*
X0101600Y0016391D02*
X0102000Y0016391D01*
X0102000Y0014793D02*
X0101600Y0014793D01*
X0101600Y0013194D02*
X0102000Y0013194D01*
X0105407Y0013194D02*
X0105701Y0013194D01*
X0098193Y0013194D02*
X0095689Y0013194D01*
X0096705Y0014793D02*
X0097099Y0014793D01*
X0097522Y0019588D02*
X0096382Y0019588D01*
X0094909Y0021187D02*
X0099175Y0021187D01*
X0088691Y0021187D02*
X0084909Y0021187D01*
X0086382Y0019588D02*
X0087218Y0019588D01*
X0078798Y0012307D02*
X0077307Y0013798D01*
X0076500Y0015746D01*
X0076500Y0017854D01*
X0076748Y0018454D01*
X0068757Y0026446D01*
X0043916Y0026446D01*
X0043786Y0026316D01*
X0036617Y0026316D01*
X0035446Y0027487D01*
X0035446Y0027527D01*
X0035155Y0027406D01*
X0033563Y0027406D01*
X0032093Y0028015D01*
X0030968Y0029140D01*
X0030748Y0029673D01*
X0029477Y0028402D01*
X0029477Y0021428D01*
X0029802Y0021293D01*
X0031293Y0019802D01*
X0031921Y0018287D01*
X0032074Y0018758D01*
X0032438Y0019473D01*
X0032910Y0020122D01*
X0033478Y0020690D01*
X0034127Y0021162D01*
X0034842Y0021526D01*
X0035606Y0021774D01*
X0036399Y0021900D01*
X0036600Y0021900D01*
X0036600Y0017000D01*
X0037000Y0017000D01*
X0037000Y0021900D01*
X0037201Y0021900D01*
X0037994Y0021774D01*
X0038758Y0021526D01*
X0039473Y0021162D01*
X0040122Y0020690D01*
X0040690Y0020122D01*
X0041162Y0019473D01*
X0041526Y0018758D01*
X0041774Y0017994D01*
X0041900Y0017201D01*
X0041900Y0017000D01*
X0037000Y0017000D01*
X0037000Y0016600D01*
X0041900Y0016600D01*
X0041900Y0016399D01*
X0041774Y0015606D01*
X0041526Y0014842D01*
X0041162Y0014127D01*
X0040690Y0013478D01*
X0040122Y0012910D01*
X0039473Y0012438D01*
X0038758Y0012074D01*
X0037994Y0011826D01*
X0037201Y0011700D01*
X0037000Y0011700D01*
X0037000Y0016600D01*
X0036600Y0016600D01*
X0036600Y0011700D01*
X0036399Y0011700D01*
X0035606Y0011826D01*
X0034842Y0012074D01*
X0034127Y0012438D01*
X0033478Y0012910D01*
X0032910Y0013478D01*
X0032438Y0014127D01*
X0032074Y0014842D01*
X0031921Y0015313D01*
X0031293Y0013798D01*
X0029802Y0012307D01*
X0028096Y0011600D01*
X0080504Y0011600D01*
X0078798Y0012307D01*
X0077911Y0013194D02*
X0040407Y0013194D01*
X0041501Y0014793D02*
X0076895Y0014793D01*
X0076500Y0016391D02*
X0041899Y0016391D01*
X0041775Y0017990D02*
X0076556Y0017990D01*
X0075614Y0019588D02*
X0041078Y0019588D01*
X0039425Y0021187D02*
X0074016Y0021187D01*
X0072417Y0022785D02*
X0029477Y0022785D01*
X0029909Y0021187D02*
X0034175Y0021187D01*
X0032522Y0019588D02*
X0031382Y0019588D01*
X0036600Y0019588D02*
X0037000Y0019588D01*
X0037000Y0017990D02*
X0036600Y0017990D01*
X0036600Y0016391D02*
X0037000Y0016391D01*
X0037000Y0014793D02*
X0036600Y0014793D01*
X0036600Y0013194D02*
X0037000Y0013194D01*
X0033193Y0013194D02*
X0030689Y0013194D01*
X0031705Y0014793D02*
X0032099Y0014793D01*
X0036600Y0021187D02*
X0037000Y0021187D01*
X0029477Y0024384D02*
X0070819Y0024384D01*
X0069220Y0025982D02*
X0029477Y0025982D01*
X0029477Y0027581D02*
X0033142Y0027581D01*
X0030952Y0029179D02*
X0030254Y0029179D01*
X0026380Y0032376D02*
X0018004Y0032376D01*
X0017896Y0030778D02*
X0024826Y0030778D01*
X0024477Y0029179D02*
X0017954Y0029179D01*
X0017954Y0029339D02*
X0013399Y0029339D01*
X0013399Y0029339D01*
X0017954Y0029339D01*
X0017786Y0027581D02*
X0024477Y0027581D01*
X0024477Y0025982D02*
X0011600Y0025982D01*
X0011600Y0024384D02*
X0024477Y0024384D01*
X0024477Y0022785D02*
X0011600Y0022785D01*
X0011600Y0021187D02*
X0013691Y0021187D01*
X0012218Y0019588D02*
X0011600Y0019588D01*
X0019909Y0021187D02*
X0023691Y0021187D01*
X0022218Y0019588D02*
X0021382Y0019588D01*
X0013398Y0027581D02*
X0013398Y0027581D01*
X0013398Y0029179D02*
X0013398Y0029179D01*
X0018154Y0033975D02*
X0027979Y0033975D01*
X0029577Y0035573D02*
X0019424Y0035573D01*
X0021022Y0037172D02*
X0029609Y0037172D01*
X0027900Y0038770D02*
X0022621Y0038770D01*
X0024219Y0040369D02*
X0027406Y0040369D01*
X0027578Y0041967D02*
X0025818Y0041967D01*
X0027416Y0043566D02*
X0028559Y0043566D01*
X0029015Y0045164D02*
X0032278Y0045164D01*
X0029477Y0046763D02*
X0036096Y0046763D01*
X0039709Y0048361D02*
X0029477Y0048361D01*
X0029477Y0049960D02*
X0039930Y0049960D01*
D15*
X0043709Y0048631D02*
X0039772Y0044694D01*
X0040202Y0044300D01*
X0039772Y0044202D01*
X0034851Y0044202D01*
X0031406Y0040757D01*
X0036820Y0039280D02*
X0026977Y0029438D01*
X0026977Y0017135D01*
X0026800Y0016800D01*
X0040265Y0028946D02*
X0040202Y0029300D01*
X0040757Y0028946D01*
X0069792Y0028946D01*
X0081603Y0017135D01*
X0081800Y0016800D01*
X0040202Y0034300D02*
X0039772Y0033867D01*
X0036820Y0033867D01*
X0034359Y0031406D01*
X0036820Y0039280D02*
X0039772Y0039280D01*
X0040202Y0039300D01*
X0026977Y0046662D02*
X0026977Y0056505D01*
X0026800Y0056800D01*
X0014674Y0061918D02*
X0042233Y0061918D01*
X0047154Y0056997D01*
X0046800Y0056800D01*
X0026977Y0046662D02*
X0014674Y0034359D01*
X0013690Y0034359D01*
X0013398Y0034339D01*
X0013398Y0039339D02*
X0013690Y0039772D01*
X0015166Y0039772D01*
X0018119Y0042725D01*
X0018119Y0048139D01*
X0011721Y0054536D01*
X0011721Y0058965D01*
X0014674Y0061918D01*
D16*
X0043709Y0048631D03*
X0031406Y0040757D03*
X0034359Y0031406D03*
M02*
