G75*
%MOIN*%
%OFA0B0*%
%FSLAX25Y25*%
%IPPOS*%
%LPD*%
%AMOC8*
5,1,8,0,0,1.08239X$1,22.5*
%
%ADD10C,0.06600*%
%ADD11R,0.20000X0.10000*%
%ADD12OC8,0.06000*%
%ADD13C,0.01600*%
%ADD14C,0.01000*%
%ADD15C,0.04000*%
D10*
X0016800Y0016800D03*
X0026800Y0016800D03*
X0036800Y0016800D03*
X0081800Y0016800D03*
X0091800Y0016800D03*
X0101800Y0016800D03*
X0036800Y0056800D03*
X0026800Y0056800D03*
X0016800Y0056800D03*
D11*
X0018099Y0036800D03*
X0099595Y0036800D03*
D12*
X0056800Y0056800D03*
X0046800Y0056800D03*
D13*
X0051800Y0056354D02*
X0052000Y0056354D01*
X0052000Y0056600D02*
X0052000Y0054812D01*
X0054812Y0052000D01*
X0056600Y0052000D01*
X0056600Y0056600D01*
X0057000Y0056600D01*
X0057000Y0057000D01*
X0061600Y0057000D01*
X0061600Y0058788D01*
X0058788Y0061600D01*
X0057000Y0061600D01*
X0057000Y0057000D01*
X0056600Y0057000D01*
X0056600Y0061600D01*
X0054812Y0061600D01*
X0052000Y0058788D01*
X0052000Y0057000D01*
X0056600Y0057000D01*
X0056600Y0056600D01*
X0052000Y0056600D01*
X0052000Y0057952D02*
X0051800Y0057952D01*
X0051800Y0058871D02*
X0048871Y0061800D01*
X0044729Y0061800D01*
X0041800Y0058871D01*
X0041800Y0057833D01*
X0041774Y0057994D01*
X0041526Y0058758D01*
X0041162Y0059473D01*
X0040690Y0060122D01*
X0040122Y0060690D01*
X0039473Y0061162D01*
X0038758Y0061526D01*
X0037994Y0061774D01*
X0037201Y0061900D01*
X0037000Y0061900D01*
X0037000Y0057000D01*
X0036600Y0057000D01*
X0036600Y0061900D01*
X0036399Y0061900D01*
X0035606Y0061774D01*
X0034842Y0061526D01*
X0034127Y0061162D01*
X0033478Y0060690D01*
X0032910Y0060122D01*
X0032438Y0059473D01*
X0032074Y0058758D01*
X0031921Y0058287D01*
X0031293Y0059802D01*
X0029802Y0061293D01*
X0028191Y0061961D01*
X0105701Y0061961D01*
X0105701Y0043600D01*
X0100395Y0043600D01*
X0100395Y0037600D01*
X0098795Y0037600D01*
X0098795Y0036000D01*
X0087795Y0036000D01*
X0087795Y0031563D01*
X0087918Y0031105D01*
X0088155Y0030695D01*
X0088490Y0030360D01*
X0088900Y0030123D01*
X0089358Y0030000D01*
X0098795Y0030000D01*
X0098795Y0036000D01*
X0100395Y0036000D01*
X0100395Y0030000D01*
X0105701Y0030000D01*
X0105701Y0020108D01*
X0105690Y0020122D01*
X0105122Y0020690D01*
X0104473Y0021162D01*
X0103758Y0021526D01*
X0102994Y0021774D01*
X0102201Y0021900D01*
X0102000Y0021900D01*
X0102000Y0017000D01*
X0101600Y0017000D01*
X0101600Y0021900D01*
X0101399Y0021900D01*
X0100606Y0021774D01*
X0099842Y0021526D01*
X0099127Y0021162D01*
X0098478Y0020690D01*
X0097910Y0020122D01*
X0097438Y0019473D01*
X0097074Y0018758D01*
X0096921Y0018287D01*
X0096293Y0019802D01*
X0094802Y0021293D01*
X0092854Y0022100D01*
X0091000Y0022100D01*
X0063053Y0050047D01*
X0062350Y0050750D01*
X0061431Y0051131D01*
X0046866Y0051131D01*
X0046197Y0051800D01*
X0048871Y0051800D01*
X0051800Y0054729D01*
X0051800Y0058871D01*
X0051120Y0059551D02*
X0052763Y0059551D01*
X0054361Y0061149D02*
X0049522Y0061149D01*
X0044078Y0061149D02*
X0039490Y0061149D01*
X0037000Y0061149D02*
X0036600Y0061149D01*
X0034110Y0061149D02*
X0029946Y0061149D01*
X0031397Y0059551D02*
X0032495Y0059551D01*
X0036600Y0059551D02*
X0037000Y0059551D01*
X0037000Y0057952D02*
X0036600Y0057952D01*
X0036600Y0056600D02*
X0037000Y0056600D01*
X0037000Y0051700D01*
X0037201Y0051700D01*
X0037994Y0051826D01*
X0038758Y0052074D01*
X0039473Y0052438D01*
X0040122Y0052910D01*
X0040690Y0053478D01*
X0041162Y0054127D01*
X0041526Y0054842D01*
X0041774Y0055606D01*
X0041800Y0055767D01*
X0041800Y0054729D01*
X0043898Y0052631D01*
X0042914Y0052631D01*
X0041444Y0052022D01*
X0040318Y0050897D01*
X0039709Y0049426D01*
X0039709Y0047835D01*
X0040318Y0046365D01*
X0041444Y0045240D01*
X0042914Y0044631D01*
X0044505Y0044631D01*
X0045975Y0045240D01*
X0046866Y0046131D01*
X0059898Y0046131D01*
X0084689Y0021340D01*
X0082854Y0022100D01*
X0080746Y0022100D01*
X0078798Y0021293D01*
X0077307Y0019802D01*
X0076500Y0017854D01*
X0076500Y0015746D01*
X0077307Y0013798D01*
X0078798Y0012307D01*
X0080504Y0011600D01*
X0028096Y0011600D01*
X0029802Y0012307D01*
X0031293Y0013798D01*
X0031921Y0015313D01*
X0032074Y0014842D01*
X0032438Y0014127D01*
X0032910Y0013478D01*
X0033478Y0012910D01*
X0034127Y0012438D01*
X0034842Y0012074D01*
X0035606Y0011826D01*
X0036399Y0011700D01*
X0036600Y0011700D01*
X0036600Y0016600D01*
X0037000Y0016600D01*
X0037000Y0017000D01*
X0036600Y0017000D01*
X0036600Y0021900D01*
X0036399Y0021900D01*
X0035606Y0021774D01*
X0034842Y0021526D01*
X0034127Y0021162D01*
X0033478Y0020690D01*
X0032910Y0020122D01*
X0032438Y0019473D01*
X0032074Y0018758D01*
X0031921Y0018287D01*
X0031293Y0019802D01*
X0029802Y0021293D01*
X0027854Y0022100D01*
X0025746Y0022100D01*
X0023798Y0021293D01*
X0022307Y0019802D01*
X0021800Y0018578D01*
X0021460Y0019400D01*
X0024568Y0022509D01*
X0028459Y0022509D01*
X0029378Y0022889D01*
X0030081Y0023593D01*
X0033895Y0027406D01*
X0035155Y0027406D01*
X0036625Y0028015D01*
X0037750Y0029140D01*
X0038359Y0030611D01*
X0038359Y0032202D01*
X0037843Y0033447D01*
X0037843Y0042730D01*
X0037463Y0043649D01*
X0036759Y0044352D01*
X0032330Y0048782D01*
X0031411Y0049162D01*
X0028013Y0049162D01*
X0025625Y0051550D01*
X0025746Y0051500D01*
X0027854Y0051500D01*
X0029802Y0052307D01*
X0031293Y0053798D01*
X0031921Y0055313D01*
X0032074Y0054842D01*
X0032438Y0054127D01*
X0032910Y0053478D01*
X0033478Y0052910D01*
X0034127Y0052438D01*
X0034842Y0052074D01*
X0035606Y0051826D01*
X0036399Y0051700D01*
X0036600Y0051700D01*
X0036600Y0056600D01*
X0036600Y0056354D02*
X0037000Y0056354D01*
X0037000Y0054755D02*
X0036600Y0054755D01*
X0036600Y0053157D02*
X0037000Y0053157D01*
X0040369Y0053157D02*
X0043372Y0053157D01*
X0041800Y0054755D02*
X0041482Y0054755D01*
X0041781Y0057952D02*
X0041800Y0057952D01*
X0042480Y0059551D02*
X0041105Y0059551D01*
X0033231Y0053157D02*
X0030652Y0053157D01*
X0031690Y0054755D02*
X0032118Y0054755D01*
X0027995Y0051558D02*
X0040980Y0051558D01*
X0039930Y0049960D02*
X0027215Y0049960D01*
X0032751Y0048361D02*
X0039709Y0048361D01*
X0040154Y0046763D02*
X0034349Y0046763D01*
X0035948Y0045164D02*
X0041626Y0045164D01*
X0037497Y0043566D02*
X0062463Y0043566D01*
X0060865Y0045164D02*
X0045793Y0045164D01*
X0037843Y0041967D02*
X0064062Y0041967D01*
X0065660Y0040369D02*
X0037843Y0040369D01*
X0037843Y0038770D02*
X0067259Y0038770D01*
X0068857Y0037172D02*
X0037843Y0037172D01*
X0037843Y0035573D02*
X0070456Y0035573D01*
X0072054Y0033975D02*
X0037843Y0033975D01*
X0038287Y0032376D02*
X0073653Y0032376D01*
X0075251Y0030778D02*
X0038359Y0030778D01*
X0037766Y0029179D02*
X0076850Y0029179D01*
X0078448Y0027581D02*
X0035576Y0027581D01*
X0032470Y0025982D02*
X0080047Y0025982D01*
X0081645Y0024384D02*
X0030872Y0024384D01*
X0029126Y0022785D02*
X0083244Y0022785D01*
X0078691Y0021187D02*
X0039425Y0021187D01*
X0039473Y0021162D02*
X0038758Y0021526D01*
X0037994Y0021774D01*
X0037201Y0021900D01*
X0037000Y0021900D01*
X0037000Y0017000D01*
X0041900Y0017000D01*
X0041900Y0017201D01*
X0041774Y0017994D01*
X0041526Y0018758D01*
X0041162Y0019473D01*
X0040690Y0020122D01*
X0040122Y0020690D01*
X0039473Y0021162D01*
X0041078Y0019588D02*
X0077218Y0019588D01*
X0076556Y0017990D02*
X0041775Y0017990D01*
X0041900Y0016600D02*
X0037000Y0016600D01*
X0037000Y0011700D01*
X0037201Y0011700D01*
X0037994Y0011826D01*
X0038758Y0012074D01*
X0039473Y0012438D01*
X0040122Y0012910D01*
X0040690Y0013478D01*
X0041162Y0014127D01*
X0041526Y0014842D01*
X0041774Y0015606D01*
X0041900Y0016399D01*
X0041900Y0016600D01*
X0041899Y0016391D02*
X0076500Y0016391D01*
X0076895Y0014793D02*
X0041501Y0014793D01*
X0040407Y0013194D02*
X0077911Y0013194D01*
X0093096Y0011600D02*
X0094802Y0012307D01*
X0096293Y0013798D01*
X0096921Y0015313D01*
X0097074Y0014842D01*
X0097438Y0014127D01*
X0097910Y0013478D01*
X0098478Y0012910D01*
X0099127Y0012438D01*
X0099842Y0012074D01*
X0100606Y0011826D01*
X0101399Y0011700D01*
X0101600Y0011700D01*
X0101600Y0016600D01*
X0102000Y0016600D01*
X0102000Y0011700D01*
X0102201Y0011700D01*
X0102994Y0011826D01*
X0103758Y0012074D01*
X0104473Y0012438D01*
X0105122Y0012910D01*
X0105690Y0013478D01*
X0105701Y0013492D01*
X0105701Y0011600D01*
X0093096Y0011600D01*
X0095689Y0013194D02*
X0098193Y0013194D01*
X0097099Y0014793D02*
X0096705Y0014793D01*
X0101600Y0014793D02*
X0102000Y0014793D01*
X0102000Y0016391D02*
X0101600Y0016391D01*
X0101600Y0017990D02*
X0102000Y0017990D01*
X0102000Y0019588D02*
X0101600Y0019588D01*
X0101600Y0021187D02*
X0102000Y0021187D01*
X0104425Y0021187D02*
X0105701Y0021187D01*
X0105701Y0022785D02*
X0090315Y0022785D01*
X0088716Y0024384D02*
X0105701Y0024384D01*
X0105701Y0025982D02*
X0087118Y0025982D01*
X0085519Y0027581D02*
X0105701Y0027581D01*
X0105701Y0029179D02*
X0083921Y0029179D01*
X0082322Y0030778D02*
X0088107Y0030778D01*
X0087795Y0032376D02*
X0080724Y0032376D01*
X0079125Y0033975D02*
X0087795Y0033975D01*
X0087795Y0035573D02*
X0077527Y0035573D01*
X0075928Y0037172D02*
X0098795Y0037172D01*
X0098795Y0037600D02*
X0087795Y0037600D01*
X0087795Y0042037D01*
X0087918Y0042495D01*
X0088155Y0042905D01*
X0088490Y0043240D01*
X0088900Y0043477D01*
X0089358Y0043600D01*
X0098795Y0043600D01*
X0098795Y0037600D01*
X0098795Y0038770D02*
X0100395Y0038770D01*
X0100395Y0040369D02*
X0098795Y0040369D01*
X0098795Y0041967D02*
X0100395Y0041967D01*
X0100395Y0043566D02*
X0098795Y0043566D01*
X0105701Y0045164D02*
X0067936Y0045164D01*
X0069534Y0043566D02*
X0089231Y0043566D01*
X0087795Y0041967D02*
X0071133Y0041967D01*
X0072731Y0040369D02*
X0087795Y0040369D01*
X0087795Y0038770D02*
X0074330Y0038770D01*
X0066337Y0046763D02*
X0105701Y0046763D01*
X0105701Y0048361D02*
X0064739Y0048361D01*
X0063140Y0049960D02*
X0105701Y0049960D01*
X0105701Y0051558D02*
X0046439Y0051558D01*
X0050228Y0053157D02*
X0053655Y0053157D01*
X0052056Y0054755D02*
X0051800Y0054755D01*
X0056600Y0054755D02*
X0057000Y0054755D01*
X0057000Y0053157D02*
X0056600Y0053157D01*
X0057000Y0052000D02*
X0058788Y0052000D01*
X0061600Y0054812D01*
X0061600Y0056600D01*
X0057000Y0056600D01*
X0057000Y0052000D01*
X0059945Y0053157D02*
X0105701Y0053157D01*
X0105701Y0054755D02*
X0061544Y0054755D01*
X0061600Y0056354D02*
X0105701Y0056354D01*
X0105701Y0057952D02*
X0061600Y0057952D01*
X0060837Y0059551D02*
X0105701Y0059551D01*
X0105701Y0061149D02*
X0059239Y0061149D01*
X0057000Y0061149D02*
X0056600Y0061149D01*
X0056600Y0059551D02*
X0057000Y0059551D01*
X0057000Y0057952D02*
X0056600Y0057952D01*
X0056600Y0056354D02*
X0057000Y0056354D01*
X0098795Y0035573D02*
X0100395Y0035573D01*
X0100395Y0033975D02*
X0098795Y0033975D01*
X0098795Y0032376D02*
X0100395Y0032376D01*
X0100395Y0030778D02*
X0098795Y0030778D01*
X0099175Y0021187D02*
X0094909Y0021187D01*
X0096382Y0019588D02*
X0097522Y0019588D01*
X0101600Y0013194D02*
X0102000Y0013194D01*
X0105407Y0013194D02*
X0105701Y0013194D01*
X0037000Y0013194D02*
X0036600Y0013194D01*
X0036600Y0014793D02*
X0037000Y0014793D01*
X0037000Y0016391D02*
X0036600Y0016391D01*
X0036600Y0017990D02*
X0037000Y0017990D01*
X0037000Y0019588D02*
X0036600Y0019588D01*
X0036600Y0021187D02*
X0037000Y0021187D01*
X0034175Y0021187D02*
X0029909Y0021187D01*
X0031382Y0019588D02*
X0032522Y0019588D01*
X0032099Y0014793D02*
X0031705Y0014793D01*
X0030689Y0013194D02*
X0033193Y0013194D01*
X0022218Y0019588D02*
X0021647Y0019588D01*
X0023246Y0021187D02*
X0023691Y0021187D01*
D14*
X0023532Y0025009D02*
X0017135Y0018611D01*
X0017135Y0017135D01*
X0016800Y0016800D01*
X0023532Y0025009D02*
X0027961Y0025009D01*
X0034359Y0031406D01*
X0034359Y0031898D01*
X0035343Y0032883D01*
X0035343Y0042233D01*
X0030914Y0046662D01*
X0026977Y0046662D01*
X0017135Y0056505D01*
X0016800Y0056800D01*
X0031406Y0040757D02*
X0027469Y0036820D01*
X0018119Y0036820D01*
X0018099Y0036800D01*
X0043709Y0048631D02*
X0060934Y0048631D01*
X0091446Y0018119D01*
X0091446Y0017135D01*
X0091800Y0016800D01*
D15*
X0043709Y0048631D03*
X0031406Y0040757D03*
X0034359Y0031406D03*
M02*
